<?xml version="1.0" encoding="UTF-8" standalone="no"?>
<!DOCTYPE svg PUBLIC "-//W3C//DTD SVG 1.1//EN" "http://www.w3.org/Graphics/SVG/1.1/DTD/svg11.dtd">
<svg width="100%" height="100%" viewBox="0 0 697 205" version="1.1" xmlns="http://www.w3.org/2000/svg" xmlns:xlink="http://www.w3.org/1999/xlink" xml:space="preserve" xmlns:serif="http://www.serif.com/" style="fill-rule:evenodd;clip-rule:evenodd;stroke-linejoin:round;stroke-miterlimit:1.41421;">
    <g transform="matrix(1,0,0,1,-251.801,-432.098)">
        <g transform="matrix(1.74853,0,0,1.74853,-136.116,335.179)">
            <path d="M369.636,92.212C369.636,87.412 367.668,84.292 360.468,81.604C357.108,80.356 357.012,80.308 356.532,80.02C355.236,79.204 354.564,78.1 354.564,76.804C354.564,74.692 356.052,73.204 358.212,73.204C360.42,73.204 361.764,74.548 361.956,76.948L368.772,76.948C368.436,70.708 363.972,66.868 358.26,66.868C352.548,66.868 347.94,71.332 347.94,76.948C347.94,81.412 350.58,84.82 355.332,86.596C360.036,88.372 360.42,88.516 361.476,89.332C362.532,90.148 363.108,91.492 363.108,92.932C363.108,95.476 361.14,97.252 358.308,97.252C355.38,97.252 353.796,95.812 353.508,92.836L346.644,92.836C347.22,99.556 352.068,103.588 358.308,103.588C364.692,103.588 369.636,98.644 369.636,92.212Z" style="fill:rgb(50,25,25);fill-rule:nonzero;"/>
            <path d="M385.188,82.18L385.188,76.372L381.348,76.372L381.348,67.492L374.964,67.492L374.964,76.372L371.844,76.372L371.844,82.18L374.964,82.18L374.964,102.964L381.348,102.964L381.348,82.18L385.188,82.18Z" style="fill:rgb(50,25,25);fill-rule:nonzero;"/>
            <path d="M415.044,89.86C415.044,81.94 408.852,75.748 400.836,75.748C393.108,75.748 386.772,82.036 386.772,89.668C386.772,97.348 393.108,103.588 400.884,103.588C408.612,103.588 415.044,97.348 415.044,89.86ZM408.612,89.668C408.612,94.132 405.156,97.732 400.932,97.732C396.612,97.732 393.204,94.132 393.204,89.572C393.204,85.204 396.708,81.604 400.884,81.604C405.156,81.604 408.612,85.252 408.612,89.668Z" style="fill:rgb(50,25,25);fill-rule:nonzero;"/>
            <path d="M446.484,89.572C446.484,81.556 440.916,75.748 433.236,75.748C429.636,75.748 426.564,77.092 424.5,79.492L424.5,76.372L418.644,76.372L418.644,111.844L425.028,111.844L425.028,100.468C427.428,102.628 429.924,103.588 433.188,103.588C440.868,103.588 446.484,97.636 446.484,89.572ZM440.052,89.716C440.052,94.228 436.74,97.732 432.516,97.732C428.004,97.732 424.644,94.276 424.644,89.62C424.644,85.06 428.004,81.604 432.42,81.604C436.74,81.604 440.052,85.108 440.052,89.716Z" style="fill:rgb(50,25,25);fill-rule:nonzero;"/>
            <path d="M371.892,126.436C371.892,122.356 370.164,118.996 367.092,117.124C365.076,115.924 362.724,115.492 358.02,115.492L349.236,115.492L349.236,150.964L355.812,150.964L355.812,137.476L357.924,137.476C362.964,137.476 365.268,137.092 367.236,135.892C370.116,134.116 371.892,130.516 371.892,126.436ZM365.268,126.532C365.268,129.604 363.636,131.188 357.732,131.188L355.812,131.188L355.812,121.78L358.02,121.78C363.06,121.78 365.268,122.788 365.268,126.532Z" style="fill-rule:nonzero;"/>
            <path d="M387.54,129.892L387.54,123.748L387.06,123.748C384.324,123.748 382.98,124.516 381.3,126.964L381.3,124.372L375.444,124.372L375.444,150.964L381.828,150.964L381.828,136.18C381.828,132.052 383.7,129.988 387.54,129.892Z" style="fill-rule:nonzero;"/>
            <path d="M416.964,137.86C416.964,129.94 410.772,123.748 402.756,123.748C395.028,123.748 388.692,130.036 388.692,137.668C388.692,145.348 395.028,151.588 402.804,151.588C410.532,151.588 416.964,145.348 416.964,137.86ZM410.532,137.668C410.532,142.132 407.076,145.732 402.852,145.732C398.532,145.732 395.124,142.132 395.124,137.572C395.124,133.204 398.628,129.604 402.804,129.604C407.076,129.604 410.532,133.252 410.532,137.668Z" style="fill-rule:nonzero;"/>
            <path d="M448.404,137.572C448.404,129.556 442.836,123.748 435.156,123.748C431.556,123.748 428.484,125.092 426.42,127.492L426.42,124.372L420.564,124.372L420.564,159.844L426.948,159.844L426.948,148.468C429.348,150.628 431.844,151.588 435.108,151.588C442.788,151.588 448.404,145.636 448.404,137.572ZM441.972,137.716C441.972,142.228 438.66,145.732 434.436,145.732C429.924,145.732 426.564,142.276 426.564,137.62C426.564,133.06 429.924,129.604 434.34,129.604C438.66,129.604 441.972,133.108 441.972,137.716Z" style="fill-rule:nonzero;"/>
            <path d="M479.172,150.964L479.172,124.372L473.316,124.372L473.316,127.924C471.108,124.996 468.468,123.748 464.628,123.748C456.756,123.748 451.092,129.652 451.092,137.764C451.092,145.78 456.708,151.588 464.484,151.588C468.228,151.588 470.772,150.388 473.316,147.508L473.316,150.964L479.172,150.964ZM473.124,137.86C473.124,142.276 470.244,145.732 465.396,145.732C460.74,145.732 457.524,142.564 457.524,137.908C457.524,133.06 460.74,129.604 465.3,129.604C469.86,129.604 473.124,133.012 473.124,137.86Z" style="fill-rule:nonzero;"/>
            <path d="M510.66,145.924L510.66,124.372L504.564,124.372L504.564,127.732C502.596,125.044 499.716,123.748 495.876,123.748C488.34,123.748 482.772,129.604 482.772,137.476C482.772,145.684 488.244,151.588 495.828,151.588C499.572,151.588 502.068,150.388 504.564,147.46C504.324,153.172 501.876,155.956 497.124,155.956C494.148,155.956 492.324,155.188 490.452,153.124L483.204,153.124C485.364,158.452 490.356,161.572 496.884,161.572C505.14,161.572 510.66,157.348 510.66,145.924ZM504.276,137.764C504.276,142.564 501.252,145.732 496.692,145.732C492.132,145.732 489.204,142.612 489.204,137.764C489.204,132.868 492.132,129.604 496.596,129.604C501.156,129.604 504.276,132.916 504.276,137.764Z" style="fill-rule:nonzero;"/>
            <path d="M542.1,150.964L542.1,115.492L535.524,115.492L535.524,129.796L522.852,129.796L522.852,115.492L516.276,115.492L516.276,150.964L522.852,150.964L522.852,136.084L535.524,136.084L535.524,150.964L542.1,150.964Z" style="fill:rgb(184,17,17);fill-rule:nonzero;"/>
            <path d="M575.172,150.964L575.172,124.372L569.316,124.372L569.316,127.924C567.108,124.996 564.468,123.748 560.628,123.748C552.756,123.748 547.092,129.652 547.092,137.764C547.092,145.78 552.708,151.588 560.484,151.588C564.228,151.588 566.772,150.388 569.316,147.508L569.316,150.964L575.172,150.964ZM569.124,137.86C569.124,142.276 566.244,145.732 561.396,145.732C556.74,145.732 553.524,142.564 553.524,137.908C553.524,133.06 556.74,129.604 561.3,129.604C565.86,129.604 569.124,133.012 569.124,137.86Z" style="fill:rgb(184,17,17);fill-rule:nonzero;"/>
            <path d="M591.108,130.18L591.108,124.372L587.268,124.372L587.268,115.492L580.884,115.492L580.884,124.372L577.764,124.372L577.764,130.18L580.884,130.18L580.884,150.964L587.268,150.964L587.268,130.18L591.108,130.18Z" style="fill:rgb(184,17,17);fill-rule:nonzero;"/>
            <path d="M620.436,138.052C620.436,129.796 614.628,123.748 606.708,123.748C598.884,123.748 592.692,129.94 592.692,137.764C592.692,145.54 598.98,151.588 607.092,151.588C612.468,151.588 617.988,148.564 619.764,143.092L612.804,143.092C611.172,145.012 609.588,145.732 606.948,145.732C603.156,145.732 600.372,143.716 599.604,140.5L620.196,140.5C620.388,139.588 620.436,139.012 620.436,138.052ZM614.148,134.884L599.412,134.884C600.42,131.476 603.012,129.604 606.804,129.604C610.74,129.604 613.332,131.476 614.148,134.884Z" style="fill:rgb(184,17,17);fill-rule:nonzero;"/>
        </g>
        <g transform="matrix(1,0,0,1,139.341,5.54473)">
            <g transform="matrix(1.10133,0,0,1.10133,-122.293,-40.7987)">
                <path d="M237.862,483.366L220,481.09L220,424.352L395.648,424.352L395.648,503.474L377.786,501.198L377.786,442.214L237.862,442.214L237.862,483.366Z" style="fill:rgb(35,22,22);"/>
            </g>
            <g transform="matrix(3.32918,0,0,3.32918,-1545.04,79.7375)">
                <path d="M542.1,128.292L535.524,127.454L535.524,115.492L542.1,115.492L542.1,128.292Z" style="fill:rgb(184,17,17);"/>
            </g>
            <g transform="matrix(3.32918,0,0,3.32918,-1545.04,79.7375)">
                <path d="M522.852,125.839L516.276,125.001L516.276,115.492L522.852,115.492L522.852,125.839Z" style="fill:rgb(184,17,17);"/>
            </g>
        </g>
        <g transform="matrix(1,0,0,1,68.524,-40.768)">
            <g transform="matrix(0.991977,0.126416,-0.126416,0.991977,132.41,6.00868)">
                <path d="M128.875,608.897L117.964,523.277L137.795,523.277L147.848,602.16L128.875,608.897Z"/>
            </g>
            <g transform="matrix(0.991977,0.126416,-0.126416,0.991977,132.41,6.00868)">
                <path d="M296.471,549.384L293.143,523.277L312.975,523.277L315.443,542.647L296.471,549.384Z"/>
            </g>
            <g transform="matrix(0.991977,0.126416,-0.126416,0.991977,132.41,6.00868)">
                <path d="M180.701,590.494L172.135,523.277L194.205,523.277L195.87,536.343L237.719,531.01L236.734,523.277L258.803,523.277L263.617,561.05L242.503,568.548L240.365,551.776L198.517,557.109L201.816,582.996L180.701,590.494Z" style="fill:rgb(184,17,17);"/>
            </g>
        </g>
        <g transform="matrix(1,0,0,1,79.5172,-56.7311)">
            <g transform="matrix(0.977093,-0.212815,0.212815,0.977093,-135.009,103.224)">
                <path d="M371.225,684.792L182.21,643.624L191.711,600L211.845,600L205.618,628.589L356.19,661.384L369.559,600L389.693,600L371.225,684.792Z"/>
            </g>
        </g>
        <g transform="matrix(1,0,0,1,79.5172,-56.7311)">
            <g transform="matrix(0.977093,-0.212815,0.212815,0.977093,-135.009,103.224)">
                <path d="M269.114,600L264.125,622.905L242.734,618.246L246.708,600L269.114,600Z" style="fill:rgb(184,17,17);"/>
            </g>
        </g>
        <g transform="matrix(1,0,0,1,79.5172,-56.7311)">
            <g transform="matrix(0.977093,-0.212815,0.212815,0.977093,-135.009,103.224)">
                <path d="M326.737,636.542L305.346,631.883L312.29,600L334.696,600L326.737,636.542Z" style="fill:rgb(184,17,17);"/>
            </g>
        </g>
    </g>
</svg>
